<?xml version="1.0" encoding="utf-8"?>
<!-- Generator: Adobe Illustrator 26.0.2, SVG Export Plug-In . SVG Version: 6.00 Build 0)  -->
<svg version="1.1" id="Layer_1" xmlns="http://www.w3.org/2000/svg" xmlns:xlink="http://www.w3.org/1999/xlink" x="0px" y="0px"
	 viewBox="0 0 400 400" style="enable-background:new 0 0 400 400;" xml:space="preserve">
<style type="text/css">
	.st0{display:none;}
	.st1{display:inline;fill:#252A30;}
	.st2{display:inline;fill:url(#SVGID_1_);}
	.st3{display:inline;fill:url(#SVGID_00000092458792567973461920000003659297789946760330_);}
	.st4{display:none;fill-rule:evenodd;clip-rule:evenodd;fill:#70539E;}
	.st5{display:inline;fill:#1F74BA;}
	.st6{display:inline;fill:#1E88C8;}
	.st7{display:inline;fill:#FFFFFF;}
	.st8{display:none;fill:#DF4C36;}
	.st9{display:inline;fill:#171715;}
	.st10{fill:#E34329;}
	.st11{fill:#ED6E2F;}
	.st12{fill:#F6A22D;}
	.st13{display:inline;fill:#E35027;}
	.st14{display:inline;fill:#EC662B;}
	.st15{display:inline;fill:#E9CA33;}
	.st16{display:inline;fill:#FFDE27;}
	.st17{display:inline;}
	.st18{fill:#FFFFFF;}
	.st19{display:inline;fill:#75CBED;}
</style>
<g class="st0">
	<path class="st1" d="M377.2,229.9l-8.4,1.1c0,0-0.6-3.4-3.4-5.6c-2.8-2.2-12.3-1.7-12.3,3.9c0,5,3.9,4.5,11.7,6.1
		c7.3,1.7,13.4,3.9,13.4,14c0,5.6-3.9,12.3-16.2,12.3c-20.1,0-18.4-15.1-18.4-15.1h8.9c0,0,0.6,5,3.9,6.1c3.9,1.7,10.6,1.1,11.7-2.2
		s1.1-7.3-9.5-8.4c-10.6-1.7-15.1-6.1-15.1-13.4c0.6-6.7,4.5-12.3,18.4-12.3C376.1,217,377.2,229.9,377.2,229.9L377.2,229.9z
		 M338.6,229.9l-8.4,1.1c0,0-0.6-3.4-3.4-5.6c-2.8-2.2-12.3-1.7-12.3,3.9c0,5,3.9,4.5,11.7,6.1c7.3,1.7,13.4,3.9,13.4,14
		c0,5.6-3.9,12.3-16.2,12.3c-20.1,0-18.4-15.1-18.4-15.1h9.5c0,0,0.6,5,3.9,6.1c3.9,1.7,10.6,1.1,11.7-2.2c1.1-3.4,1.1-7.3-9.5-8.4
		c-9.5-1.1-14.5-5-14.5-11.2v-2.2c0.6-6.7,4.5-12.3,17.9-12.3C336.9,217,338.6,229.9,338.6,229.9L338.6,229.9z M291.1,245.6h9.5v0.6
		c-0.6,3.4-2.2,15.1-18.4,15.1c-14.5,0-19.6-11.2-19.6-22.9c0-12.3,7.3-21.2,20.7-21.2c15.1,0,16.2,14.5,16.2,14.5l-8.9,1.1
		c0,0-0.6-7.8-8.4-7.8c-7.8,0-10.6,6.1-10.6,13.4c0,7.3,2.2,15.7,10.1,15.7S291.1,245.6,291.1,245.6L291.1,245.6z M243.6,218.2v42.5
		h-7.8v-3.9c0,0-2.8,5-9.5,5c-7.3,0-12.3-3.4-12.9-16.2c0-13.4,8.4-16.8,14-16.8c5,0,8.4,3.9,8.4,3.9v-14.5H243.6z M235.8,245
		c0-4.5-0.6-9.5-7.3-9.5c-6.7,0-6.7,7.8-6.7,10.1c0,2.8,0.6,8.9,6.7,8.9S235.8,249.5,235.8,245L235.8,245z M207.3,239.4v20.7h-8.4
		V240c0-2.8-1.7-5-5-5s-6.7,2.8-6.7,5.6v19.6h-8.4v-31.3h8.4v4.5c0,0,2.8-5.6,11.2-5C207.8,229.3,207.3,238.3,207.3,239.4z
		 M163.7,229.3h8.4v31.3h-8.4V229.3z M163.7,218.2h8.4v7.3h-8.4V218.2z M160.3,229.3l-8.9,31.3H143l-5.6-20.7l-5.6,20.7H124
		l-8.9-31.3h8.9l4.5,20.1l6.1-20.1h7.3l5,20.7l4.5-20.7H160.3z M102.7,217.6h8.4v42.5h-8.4V217.6z M87.7,229.3H96v31.3h-8.4V229.3z
		 M87.7,218.2H96v7.3h-8.4V218.2z M80.9,240.5v19.6h-7.8v-3.9c0,0-2.2,2.8-5.6,3.9c-5,1.7-12.3,0.6-14.5-5c-1.7-4.5,0-9.5,4.5-11.7
		c5.6-2.8,15.1-2.2,15.1-2.2s0.6-2.2-0.6-3.9c-0.6-1.7-2.2-2.2-4.5-2.2c-5.6,0-5.6,3.9-5.6,3.9l-7.8-0.6c0,0,0-3.9,3.9-6.7
		c2.2-1.7,5-2.2,10.1-2.2C74.2,229.3,80.9,231.6,80.9,240.5z M68.1,254.5c5.6-1.1,5-7.8,5-7.8h-2.2c-1.7,0-3.9,0-5.6,0.6
		c-2.8,0.6-3.9,1.7-4.5,2.8c-0.6,1.7,0,3.4,1.7,4.5C63.6,255.1,65.3,255.1,68.1,254.5z M56.3,217.6v8.4H43.5v34.7H34v-35.2H21.7
		v-7.8L56.3,217.6z"/>
	
		<linearGradient id="SVGID_1_" gradientUnits="userSpaceOnUse" x1="5.273" y1="382.905" x2="7.6748" y2="382.905" gradientTransform="matrix(39.185 0 0 39.185 -38.185 -14847.1514)">
		<stop  offset="0" style="stop-color:#47AAB3"/>
		<stop  offset="0.389" style="stop-color:#3FAEB0"/>
		<stop  offset="1" style="stop-color:#3AB6A8"/>
	</linearGradient>
	<path class="st2" d="M262.6,151.1c0,0-7.8,11.7-21.2,9.5c-13.4-2.2-15.7-22.4-39.7-22.4c-29.6,0-33,25.2-33,25.2
		s8.4-12.3,21.2-10.1c12.9,2.2,17.9,22.4,44.2,22.4S262.6,151.1,262.6,151.1z"/>
	
		<linearGradient id="SVGID_00000060716875482601000220000002286949466554745484_" gradientUnits="userSpaceOnUse" x1="4.4697" y1="383.8607" x2="6.8714" y2="383.8607" gradientTransform="matrix(39.185 0 0 39.185 -38.185 -14847.1514)">
		<stop  offset="0" style="stop-color:#47AAB3"/>
		<stop  offset="0.389" style="stop-color:#3FAEB0"/>
		<stop  offset="1" style="stop-color:#3AB6A8"/>
	</linearGradient>
	<path style="display:inline;fill:url(#SVGID_00000060716875482601000220000002286949466554745484_);" d="M231.3,188.5
		c0,0-7.8,11.7-21.2,9.5c-13.4-2.2-15.7-22.4-39.7-22.4c-29.6,0-33,25.2-33,25.2s8.4-12.3,21.2-10.1c12.3,2.2,17.9,22.4,44.2,22.4
		S231.3,188.5,231.3,188.5z"/>
</g>
<path class="st4" d="M95.8,58C75.4,58,60.4,75.8,61,95.1c0.6,18.6-0.2,42.6-6.2,62.2c-6.1,19.7-16.3,32.1-33.1,33.7v18
	c16.8,1.6,27,14,33.1,33.7c6.1,19.6,6.9,43.6,6.2,62.2C60.4,324.2,75.4,342,95.8,342h208.5c20.3,0,35.4-17.8,34.7-37.1
	c-0.6-18.6,0.2-42.6,6.2-62.2c6.1-19.7,16.3-32.1,33.1-33.7v-18c-16.8-1.6-27-14-33.1-33.7c-6.1-19.6-6.9-43.6-6.2-62.2
	c0.7-19.3-14.4-37.1-34.7-37.1H95.8L95.8,58z M263.5,232.8c0,26.6-19.8,42.7-52.8,42.7h-56c-3.3,0-6-2.7-6-6l0,0v-139
	c0-3.3,2.7-6,6-6h55.7c27.4,0,45.5,14.9,45.5,37.7c0,16-12.1,30.4-27.6,32.9v0.8C249.3,198.2,263.5,212.7,263.5,232.8L263.5,232.8z
	 M204.6,143.6h-32v45.1h26.9c20.8,0,32.3-8.4,32.3-23.4C231.8,151.4,222,143.6,204.6,143.6L204.6,143.6z M172.6,206.6v49.7h33.1
	c21.7,0,33.1-8.7,33.1-25s-11.8-24.7-34.5-24.7L172.6,206.6L172.6,206.6z"/>
<g class="st0">
	<path class="st5" d="M70.4,340.9L44.3,22.3l311.4,0.6l-27.6,318l-126.9,36.8L70.4,340.9z"/>
	<path class="st6" d="M201.2,346.9V52.6l128.2,0.4l-22.9,263.3L201.2,346.9z"/>
	<path class="st7" d="M297.6,90.3H100.3l5.3,38.5h93.6l-92.1,39.5l5.3,37.2h135.7l-4.9,51.9l-46,9l-41.7-10.7l-3.2-29.5h-38.3
		l5.1,61.3l82.1,22.9l78.7-25l10-119.9h-83.1l90.6-37.6L297.6,90.3z"/>
</g>
<path class="st8" d="M371.6,184.1L215.9,28.4c-9-9-23.5-9-32.5,0l-32.3,32.3l41,41c9.5-3.2,20.5-1.1,28.1,6.5
	c7.6,7.6,9.8,18.7,6.5,28.2l39.5,39.5c9.6-3.3,20.6-1.2,28.2,6.5c10.7,10.7,10.7,28,0,38.6c-10.7,10.7-28,10.7-38.7,0
	c-8-8-10-19.8-5.9-29.7l-36.9-36.9l0,97c2.7,1.3,5.1,3.1,7.2,5.2c10.7,10.7,10.7,28,0,38.7c-10.7,10.7-28,10.7-38.6,0
	c-10.7-10.7-10.7-28,0-38.7c2.6-2.6,5.6-4.6,8.9-6v-97.9c-3.4-1.4-6.4-3.4-8.9-6c-8.1-8.1-10-19.9-5.9-29.9l-40.4-40.4L28.4,183.4
	c-9,9-9,23.5,0,32.5l155.7,155.7c9,9,23.5,9,32.5,0l155-155C380.5,207.6,380.5,193.1,371.6,184.1"/>
<g class="st0">
	<path class="st9" d="M200,26.8c-98.1,0-177.6,79.5-177.6,177.6c0,78.5,50.9,145.1,121.5,168.5c8.9,1.6,12.1-3.9,12.1-8.5
		c0-4.2-0.2-18.2-0.2-33.1c-49.4,10.7-59.8-21-59.8-21c-8.1-20.5-19.7-26-19.7-26c-16.1-11,1.2-10.8,1.2-10.8
		c17.8,1.3,27.2,18.3,27.2,18.3c15.8,27.2,41.6,19.3,51.7,14.8c1.6-11.5,6.2-19.3,11.3-23.8c-39.4-4.5-80.9-19.7-80.9-87.8
		c0-19.4,6.9-35.2,18.3-47.7c-1.8-4.5-7.9-22.5,1.7-47c0,0,14.9-4.8,48.9,18.2c14.2-3.9,29.4-5.9,44.5-6c15.1,0.1,30.3,2,44.5,6
		c33.9-23,48.8-18.2,48.8-18.2c9.7,24.5,3.6,42.5,1.7,47c11.4,12.4,18.3,28.3,18.3,47.7c0,68.2-41.6,83.2-81.1,87.6
		c6.4,5.5,12,16.3,12,32.9c0,23.8-0.2,42.9-0.2,48.7c0,4.7,3.2,10.3,12.2,8.5c70.5-23.5,121.4-90.1,121.4-168.5
		C377.6,106.3,298.1,26.8,200,26.8"/>
	<path class="st9" d="M88.9,279.8c-0.4,0.9-1.8,1.1-3,0.5c-1.3-0.6-2-1.8-1.6-2.7c0.4-0.9,1.8-1.2,3.1-0.6
		C88.6,277.7,89.4,278.9,88.9,279.8 M97.6,287.6c-0.8,0.8-2.5,0.4-3.6-0.8c-1.2-1.2-1.4-2.9-0.5-3.7c0.9-0.8,2.5-0.4,3.6,0.8
		C98.3,285.1,98.5,286.8,97.6,287.6 M103.6,297.6c-1.1,0.8-2.9,0-4-1.5c-1.1-1.6-1.1-3.5,0-4.2c1.1-0.8,2.9-0.1,4,1.5
		C104.8,294.9,104.8,296.8,103.6,297.6 M113.8,309.1c-1,1.1-3,0.8-4.6-0.7c-1.6-1.4-2-3.5-1-4.5c1-1.1,3.1-0.8,4.6,0.7
		C114.3,306,114.8,308,113.8,309.1 M126.9,313c-0.4,1.4-2.4,2-4.4,1.4c-2-0.6-3.3-2.2-2.9-3.6c0.4-1.4,2.4-2.1,4.5-1.4
		C126,310,127.3,311.6,126.9,313 M141.8,314.7c0.1,1.5-1.7,2.7-3.8,2.7c-2.1,0-3.8-1.1-3.9-2.6c0-1.5,1.7-2.7,3.8-2.7
		C140.1,312,141.8,313.2,141.8,314.7 M156.4,314.1c0.3,1.4-1.2,2.9-3.3,3.3c-2.1,0.4-4-0.5-4.2-1.9c-0.3-1.5,1.2-2.9,3.3-3.3
		C154.3,311.8,156.2,312.6,156.4,314.1"/>
</g>
<g>
	<path class="st10" d="M200,364.1l65.6-201.9H134.4L200,364.1L200,364.1z"/>
	<path class="st11" d="M200,364.1l-65.6-201.9h-92L200,364.1z"/>
	<path class="st12" d="M42.4,162.2l-19.9,61.4c-1.8,5.6,0.2,11.7,4.9,15.2L200,364.1L42.4,162.2L42.4,162.2z"/>
	<path class="st10" d="M42.4,162.2h92L94.9,40.6c-2-6.3-10.9-6.3-12.9,0L42.4,162.2L42.4,162.2z"/>
	<path class="st11" d="M200,364.1l65.6-201.9h92L200,364.1L200,364.1z"/>
	<path class="st12" d="M357.6,162.2l19.9,61.4c1.8,5.6-0.2,11.7-4.9,15.2L200,364.1L357.6,162.2L357.6,162.2z"/>
	<path class="st10" d="M357.6,162.2h-92l39.5-121.6c2-6.3,10.9-6.3,12.9,0L357.6,162.2L357.6,162.2z"/>
</g>
<g class="st0">
	<path class="st13" d="M70.4,341L44.3,22.3l311.4,0.6l-27.6,318l-126.9,36.8L70.4,341z"/>
	<path class="st14" d="M201.2,346.9V52.6l128.2,0.4l-22.9,263.3L201.2,346.9z"/>
	<path class="st7" d="M294.1,126.2l3.6-38.9H100.5l10.9,119.3h136.1l-5.3,50.9l-43.6,11.8l-44.2-12.8L152,226h-39.1l5.3,62
		l80.4,22.4l81-22.4l10.9-121h-143l-4.1-40.8H294.1z"/>
</g>
<g class="st0">
	<path class="st15" d="M70.4,341L44.3,22.3l311.4,0.6l-27.6,318l-126.9,36.8L70.4,341z"/>
	<path class="st16" d="M201.2,346.9V52.6l128.2,0.4l-22.9,263.3L201.2,346.9z"/>
	<g class="st17">
		<path class="st18" d="M187.4,87.6h-33.9v195.9l-26.4-5v-26.4l-31.4-5v59l91.7,23.9V87.6z M212.9,87.6h93.9l-6.3,37.5h-51.7v61.6
			h51.7l-6.3,124.3l-81.3,18.8V291l54.9-18.8l3.2-51.5l-58.1,8.4V87.6z"/>
	</g>
</g>
<g class="st0">
	<path class="st19" d="M356.5,200c0-20.7-26-40.4-65.8-52.6c9.2-40.6,5.1-72.8-12.9-83.2c-4.1-2.4-9-3.6-14.3-3.6v14.2
		c2.9,0,5.3,0.6,7.3,1.7c8.7,5,12.4,23.9,9.5,48.3c-0.7,6-1.8,12.3-3.3,18.8c-12.5-3.1-26.2-5.4-40.5-7
		c-8.6-11.8-17.5-22.5-26.5-31.9c20.8-19.3,40.3-29.9,53.6-29.9V60.6c-17.5,0-40.5,12.5-63.7,34.2c-23.2-21.6-46.2-33.9-63.7-33.9
		v14.2c13.2,0,32.8,10.5,53.6,29.7c-8.9,9.4-17.9,20-26.3,31.8c-14.4,1.5-28.1,3.9-40.6,7c-1.5-6.4-2.6-12.6-3.3-18.5
		c-3-24.4,0.7-43.3,9.3-48.4c1.9-1.1,4.4-1.7,7.3-1.7V61c-5.4,0-10.2,1.1-14.4,3.6c-17.9,10.3-21.9,42.5-12.7,83
		c-39.7,12.2-65.5,31.8-65.5,52.5c0,20.7,26,40.4,65.8,52.6c-9.2,40.6-5.1,72.8,12.9,83.2c4.1,2.4,9,3.6,14.4,3.6
		c17.5,0,40.5-12.5,63.7-34.2c23.2,21.6,46.2,33.9,63.7,33.9c5.4,0,10.2-1.1,14.4-3.6c17.9-10.3,21.9-42.5,12.7-83
		C330.6,240.3,356.5,220.7,356.5,200L356.5,200z M273.4,157.5c-2.4,8.2-5.3,16.7-8.6,25.2c-2.6-5.1-5.4-10.2-8.4-15.3
		c-2.9-5.1-6.1-10.1-9.2-14.9C256.3,153.8,265.1,155.4,273.4,157.5L273.4,157.5z M244.2,225.4c-5,8.6-10.1,16.8-15.4,24.4
		c-9.5,0.8-19.1,1.3-28.8,1.3c-9.6,0-19.3-0.4-28.7-1.2c-5.3-7.6-10.5-15.7-15.4-24.2c-4.8-8.4-9.2-16.8-13.3-25.4
		c4-8.5,8.4-17.1,13.2-25.5c5-8.6,10.1-16.8,15.4-24.4c9.5-0.8,19.1-1.3,28.8-1.3c9.6,0,19.3,0.4,28.7,1.2
		c5.3,7.6,10.5,15.7,15.4,24.2c4.8,8.4,9.2,16.8,13.3,25.4C253.4,208.5,249,217.1,244.2,225.4L244.2,225.4z M264.8,217.1
		c3.4,8.5,6.4,17.1,8.8,25.4c-8.4,2-17.2,3.8-26.3,5.1c3.1-4.9,6.3-10,9.2-15.1C259.5,227.4,262.2,222.2,264.8,217.1L264.8,217.1z
		 M200.1,285.2c-5.9-6.1-11.9-12.9-17.7-20.4c5.7,0.3,11.6,0.4,17.5,0.4c6,0,11.9-0.1,17.7-0.4C211.9,272.2,206,279.1,200.1,285.2z
		 M152.7,247.6c-9.1-1.3-17.8-3-26.2-5c2.4-8.2,5.3-16.7,8.6-25.2c2.6,5.1,5.4,10.2,8.4,15.3C146.5,237.8,149.5,242.8,152.7,247.6z
		 M199.8,114.9c5.9,6.1,11.9,12.9,17.7,20.4c-5.7-0.3-11.6-0.4-17.5-0.4c-6,0-11.9,0.1-17.7,0.4C188,127.8,193.9,121,199.8,114.9z
		 M152.6,152.4c-3.1,4.9-6.3,10-9.2,15.1c-2.9,5.1-5.7,10.2-8.3,15.3c-3.4-8.5-6.4-17.1-8.8-25.4
		C134.7,155.5,143.5,153.8,152.6,152.4L152.6,152.4z M94.9,232.3C72.3,222.7,57.7,210,57.7,200c0-10,14.6-22.7,37.2-32.3
		c5.5-2.4,11.5-4.5,17.7-6.4c3.6,12.5,8.4,25.5,14.4,38.8c-5.9,13.3-10.6,26.2-14.2,38.7C106.4,236.8,100.4,234.7,94.9,232.3
		L94.9,232.3z M129.2,323.5c-8.7-5-12.4-23.9-9.5-48.3c0.7-6,1.8-12.3,3.3-18.8c12.5,3.1,26.2,5.4,40.5,7
		c8.6,11.8,17.5,22.5,26.5,31.9c-20.8,19.3-40.3,29.9-53.6,29.9C133.5,325.1,131.1,324.6,129.2,323.5L129.2,323.5z M280.5,274.9
		c3,24.4-0.7,43.3-9.3,48.4c-1.9,1.1-4.4,1.7-7.3,1.7c-13.2,0-32.8-10.5-53.6-29.7c8.9-9.4,17.9-20,26.3-31.8
		c14.4-1.5,28.1-3.9,40.6-7C278.7,262.7,279.8,268.9,280.5,274.9z M305.1,232.3c-5.5,2.4-11.5,4.5-17.7,6.4
		c-3.6-12.5-8.4-25.5-14.4-38.8c5.9-13.3,10.6-26.2,14.2-38.7c6.3,2,12.3,4.1,17.9,6.5c22.6,9.6,37.2,22.3,37.2,32.3
		C342.3,210,327.6,222.7,305.1,232.3L305.1,232.3z"/>
	<circle class="st19" cx="199.9" cy="200" r="29.2"/>
</g>
</svg>
